<?xml version="1.0" encoding="utf-8"?>
<!-- Generator: Adobe Illustrator 23.0.1, SVG Export Plug-In . SVG Version: 6.00 Build 0)  -->
<svg version="1.1" id="Layer_1" xmlns="http://www.w3.org/2000/svg" xmlns:xlink="http://www.w3.org/1999/xlink" x="0px" y="0px"
	 viewBox="0 0 300.73 86.4" style="enable-background:new 0 0 300.73 86.4;" xml:space="preserve">
<style type="text/css">
	.st0{fill:#FFA134;}
	.st1{opacity:0.1;fill:#232020;}
	.st2{fill:#FFD22C;}
	.st3{fill:#212121;}
</style>
<g>
	<g>
		
			<ellipse transform="matrix(0.6064 -0.7951 0.7951 0.6064 32.1368 149.6251)" class="st0" cx="167.21" cy="42.35" rx="32.04" ry="32.04"/>
		<path class="st1" d="M167,7.42c-19.29,0.12-34.83,15.85-34.72,35.14c0.12,19.29,15.85,34.83,35.14,34.72
			c19.29-0.12,34.83-15.85,34.72-35.14C202.02,22.85,186.29,7.3,167,7.42z M167.39,71.41c-16.05,0.1-29.14-12.84-29.24-28.89
			c-0.1-16.05,12.84-29.14,28.89-29.24c16.05-0.1,29.14,12.84,29.24,28.89C196.37,58.22,183.44,71.31,167.39,71.41z"/>
		<path class="st2" d="M166.98,3.84c-21.27,0.13-38.41,17.48-38.28,38.75c0.13,21.27,17.48,38.41,38.75,38.28
			c21.27-0.13,38.41-17.48,38.28-38.75C205.6,20.85,188.25,3.71,166.98,3.84z M167.41,74.39c-17.7,0.11-32.13-14.15-32.24-31.85
			c-0.11-17.7,14.15-32.13,31.85-32.24c17.7-0.11,32.13,14.15,32.24,31.85C199.36,59.85,185.1,74.29,167.41,74.39z"/>
	</g>
	<path class="st2" d="M180.02,44.21c-0.95-1.25-2.39-2.22-4.34-2.91c1.2-0.69,2.1-1.56,2.7-2.63c0.6-1.06,0.9-2.3,0.89-3.72
		c-0.02-2.82-1.03-4.96-3.03-6.43c-2-1.47-4.9-2.19-8.7-2.17l-1.37,0.01c-0.01-1.28-0.02-2.55-0.02-3.83
		c-0.01-1.17-2.13-1.16-2.12,0.01c0.01,1.28,0.02,2.55,0.02,3.83l-1.38,0.01c-0.01-1.28-0.02-2.55-0.02-3.83
		c-0.01-1.17-2.13-1.16-2.12,0.01c0.01,1.28,0.02,2.55,0.02,3.83l-5.57,0.03c-0.61,0-1.08,0.17-1.4,0.51
		c-0.32,0.33-0.48,0.81-0.48,1.44c0,0.74,0.21,1.24,0.6,1.52c0.4,0.28,1.29,0.41,2.67,0.4l0.89-0.01l0.15,24.24l-0.89,0.01
		c-1.49,0.01-2.43,0.14-2.82,0.41c-0.39,0.26-0.59,0.75-0.58,1.47c0,0.65,0.16,1.13,0.48,1.45c0.32,0.32,0.79,0.48,1.42,0.48
		l5.73-0.03c0.01,1.28,0.02,2.55,0.02,3.83c0.01,1.17,2.13,1.16,2.12-0.01c-0.01-1.28-0.02-2.55-0.02-3.83l1.38-0.01
		c0.01,1.28,0.02,2.55,0.02,3.83c0.01,1.17,2.13,1.16,2.12-0.01c-0.01-1.28-0.02-2.55-0.02-3.83l0.7,0l2.31-0.01
		c1.97-0.01,3.5-0.13,4.57-0.36c1.08-0.23,2.05-0.6,2.93-1.11c1.47-0.87,2.6-1.98,3.4-3.33c0.8-1.35,1.19-2.84,1.18-4.47
		C181.45,47.06,180.97,45.46,180.02,44.21z M168.17,30.24c2.08-0.01,3.68,0.4,4.8,1.25c1.12,0.85,1.68,2.07,1.69,3.66
		c0.01,1.69-0.6,2.94-1.82,3.75c-1.22,0.81-3.11,1.23-5.66,1.25l-0.91,0.01c-0.02-3.3-0.04-6.6-0.06-9.9L168.17,30.24z
		 M164.08,30.26c0.02,3.3,0.04,6.6,0.06,9.9l-1.38,0.01c-0.02-3.3-0.04-6.6-0.06-9.9L164.08,30.26z M162.85,54.52
		c-0.02-3.68-0.04-7.35-0.07-11.03l1.38-0.01c0.02,3.68,0.04,7.35,0.07,11.03L162.85,54.52z M174.74,53.16
		c-1.38,0.86-3.75,1.3-7.12,1.32l-1.26,0.01c-0.02-3.68-0.04-7.35-0.07-11.03l1.53-0.01c3.32-0.02,5.64,0.39,6.96,1.22
		c1.32,0.83,1.99,2.25,2,4.24C176.79,50.89,176.11,52.3,174.74,53.16z"/>
</g>
<g>
	<path class="st3" d="M33.66,35.22c0,2.99-0.94,5-3.22,6.57v0.18c2.86,1.25,4.51,3.8,4.51,7.68c0,5.76-4.69,8.84-10.99,8.84H10.7
		c-1.43,0-1.92-0.49-1.92-1.88V28.66c0-1.43,0.49-1.92,1.92-1.92h13.09C29.95,26.74,33.66,29.77,33.66,35.22z M21.96,33.93h-4.33
		v4.91h4.33c1.79,0,2.72-0.67,2.72-2.41C24.68,34.69,23.74,33.93,21.96,33.93z M22.81,46.03h-5.18v5.23h5.18
		c1.92,0,2.86-0.76,2.86-2.63C25.66,46.83,24.73,46.03,22.81,46.03z"/>
	<path class="st3" d="M64.47,58.49h-4.82c-2.32,0-2.99-0.49-3.35-1.88l-1.03-3.22h-9.65l-1.03,3.22c-0.45,1.38-1.03,1.88-3.26,1.88
		h-4.69c-1.38,0-1.65-0.62-1.21-1.83l10.27-28.32c0.45-1.29,1.03-1.56,2.32-1.56h5.09c1.3,0,1.88,0.31,2.32,1.47l10.32,28.41
		C66.22,57.87,65.81,58.49,64.47,58.49z M50.63,34.91h-0.45c0,0,0.04,3.22-0.85,6.21l-1.65,5.27h5.58l-1.65-5.23
		C50.72,38.12,50.63,34.91,50.63,34.91z"/>
	<path class="st3" d="M94.98,28.66v27.96c0,1.38-0.49,1.88-1.88,1.88h-5.05c-0.94,0-1.43-0.27-1.83-0.89l-6.88-10.58
		c-1.96-3.08-2.72-5.18-3.93-9.2h-0.36c0.94,4.29,1.47,6.57,1.47,11.52v7.28c0,1.38-0.49,1.88-1.92,1.88H70.1
		c-1.43,0-1.92-0.49-1.92-1.88V28.66c0-1.38,0.49-1.88,1.92-1.88h5.27c1.03,0,1.47,0.27,1.88,0.89l7.32,11.43
		c1.97,3.08,2.32,4.78,3.75,8.17h0.36c-1.43-4.6-2.01-6.74-2.01-11.3v-7.33c0-1.38,0.45-1.88,1.88-1.88h4.56
		C94.49,26.78,94.98,27.27,94.98,28.66z"/>
	<path class="st3" d="M124.81,58.49h-4.82c-2.37,0-3.22-0.31-3.98-1.88l-3.89-7.99c-0.71-1.43-1.34-2.23-3.04-2.23h-0.8v10.23
		c0,1.38-0.45,1.88-1.88,1.88h-5.05c-1.43,0-1.92-0.49-1.92-1.88V28.66c0-1.38,0.49-1.88,1.92-1.88h5.05c1.43,0,1.88,0.49,1.88,1.88
		v9.92h0.62h0.36l6.43-10.14c0.85-1.38,1.25-1.65,3.57-1.65h5.14c1.34,0,1.79,0.8,1.07,1.96l-8.13,12.95
		c1.12,0.8,1.97,1.92,2.72,3.44l5.9,11.17C126.6,57.51,126.29,58.49,124.81,58.49z"/>
	<path class="st3" d="M235.85,37.54c0,4.38-1.79,7.5-4.82,9.2c0.45,0.58,0.85,1.21,1.21,1.92l4.02,7.64
		c0.62,1.21,0.31,2.19-1.16,2.19h-4.82c-2.37,0-3.39-0.58-4.11-2.14l-2.86-6.12c-0.76-1.52-1.52-2.28-3.35-2.28h-1.03v8.66
		c0,1.38-0.45,1.88-1.88,1.88H212c-1.43,0-1.92-0.49-1.92-1.88V28.66c0-1.38,0.49-1.88,1.92-1.88h12.73
		C231.48,26.78,235.85,30.62,235.85,37.54z M223.75,34.6h-4.82v5.9h4.82c1.88,0,2.95-1.16,2.95-2.99
		C226.7,35.71,225.67,34.6,223.75,34.6z"/>
	<path class="st3" d="M252.6,26.11c8.8,0,13.71,4.78,13.71,12.5v8.04c0,7.73-4.91,12.51-13.71,12.51c-8.84,0-13.76-4.78-13.76-12.51
		v-8.04C238.85,30.89,243.76,26.11,252.6,26.11z M252.6,33.93c-3.13,0-4.91,1.47-4.91,4.29v8.84c0,2.81,1.79,4.29,4.91,4.29
		c3.08,0,4.87-1.47,4.87-4.29v-8.84C257.47,35.4,255.68,33.93,252.6,33.93z"/>
	<path class="st3" d="M282.35,26.11c6.61,0,10.36,1.96,12.46,6.25c0.62,1.3,0.27,1.97-1.07,2.5l-4.47,1.92
		c-1.21,0.54-1.7,0.36-2.41-0.94c-0.85-1.7-2.46-2.32-4.51-2.32c-3.04,0-4.24,0.76-4.24,2.32c0,1.92,2.63,2.32,5.85,2.72
		c5.18,0.71,11.88,1.97,11.88,10.41c0,6.57-5.94,10.18-13.84,10.18c-6.66,0-11.3-2.28-13-6.92c-0.49-1.34-0.09-1.96,1.21-2.46
		l4.2-1.52c1.34-0.45,1.96-0.31,2.63,0.98c0.8,1.56,2.55,2.37,5.05,2.37c2.99,0,4.78-0.62,4.78-2.55c0-1.74-2.28-2.23-5.23-2.63
		c-5.23-0.71-12.55-1.65-12.55-10.32C269.08,30.22,273.82,26.11,282.35,26.11z"/>
</g>
</svg>
